<?xml version="1.0" encoding="utf-8" ?>
<svg baseProfile="full" height="200mm" version="1.1" viewBox="0,0,200,200" width="200mm" xmlns="http://www.w3.org/2000/svg" xmlns:ev="http://www.w3.org/2001/xml-events" xmlns:xlink="http://www.w3.org/1999/xlink"><defs /><rect fill="#1a1a1a" height="200" width="200" x="0" y="0" /><text alignment-baseline="middle" fill="#e1ed5e" style="dominant-baseline: central; font-size:9.0px; font-family:Arial;" text-anchor="middle" x="100.0" y="100.0">2021</text><line stroke="#e1ed5e" stroke-width="0.3" x1="100.0" x2="100.0" y1="15.0" y2="10.0" /><path d="M 100.0 14.0 a86.0,86.0 0 0,1 42.46469731375804,11.215312516191453" fill="none" id="id49" stroke="none" /><text fill="#e1ed5e" style="font-size:6.75px; font-family:Arial;" text-anchor="middle"><textPath startOffset="22.20632615414155" xlink:href="#id49">January</textPath></text><path d="M 104.66035177308747 79.52364482259891 l 5.625382041505441 -24.716443371425513 a46.348520588897806,46.348520588897806 0 0,0 0.7763957946430494,0.18374780024994555 l -6.050001523111014 24.615949659034698" fill="#eeff19" stroke="none" /><path d="M 105.01212808612495 79.60689891045804 l 6.389346878523196 -25.99666140827044 a47.77032233482353,47.77032233482353 0 0,0 0.796834252311424,0.20313079316891214 l -6.8358900195196455 25.88282761893266" fill="#dcff1b" stroke="none" /><path d="M 105.71112130821622 79.79150937346287 l 7.32208068560754 -25.9087823417402 a47.923556005814234,47.923556005814234 0 0,0 0.7919020350236544,0.23117791940700405 l -7.7669729383546215 25.77890609341449" fill="#daff1c" stroke="none" /><path d="M 106.0581310904928 79.89281104454417 l 7.621921883357386 -25.29747561139757 a47.420748768822904,47.420748768822904 0 0,0 0.7795398148575174,0.24220681508161063 l -8.056247070925622 25.162528661433438" fill="#e0ff1b" stroke="none" /><path d="M 106.40334571778207 80.00007090966166 l 8.261180181260343 -25.80260774752354 a48.09283419208501,48.09283419208501 0 0,0 0.7862426716757138,0.25921184723905555 l -8.704105675178473 25.656582176025246" fill="#d7ff1c" stroke="none" /><path d="M 106.74666289553966 80.11325718540242 l 8.48187345406433 -25.001521282240915 a47.401103077657694,47.401103077657694 0 0,0 0.7704214051264913,0.2687849006277966 l -8.910976863254094 24.851815528440913" fill="#e0ff1b" stroke="none" /><path d="M 107.76421540070413 80.48803036053334 l 3.223576867815256 -8.101054740134343 a29.718860919028742,29.718860919028742 0 0,0 0.4736848631932476,0.19322794921512584 l -3.3625456005968912 8.044365904735638" fill="#ff1f03" stroke="none" /><path d="M 108.43124777332544 80.76684994638697 l 10.801529634851729 -24.64017733329073 a47.903742889579405,47.903742889579405 0 0,0 0.7523576665406247,0.33756095427719174 l -11.224069419859134 24.450596048497008" fill="#daff1c" stroke="none" /><path d="M 108.76106565485865 80.91482961587045 l 11.33101070863682 -24.68355774491902 a48.16007780964543,48.16007780964543 0 0,0 0.7504298478487008,0.3523368757306517 l -11.754218767785117 24.484855886548367" fill="#d6ff1c" stroke="none" /><path d="M 109.08828744355905 81.06846463323043 l 11.681763070387422 -24.333925625338313 a47.99265686760316,47.99265686760316 0 0,0 0.7416664821926834,0.36393252178978197 l -12.098900819590538 24.1292379434137" fill="#d9ff1c" stroke="none" /><path d="M 109.73455568895987 81.39251694778311 l 12.503864562122422 -23.900982783505818 a47.974128475362136,47.974128475362136 0 0,0 0.7284185001360198,0.3890959360424829 l -12.913428108786752 23.68220812096158" fill="#d9ff1c" stroke="none" /><line stroke="#e1ed5e" stroke-width="0.3" x1="143.23703022742887" x2="145.7803849466894" y1="26.81831364943548" y2="22.513508569990506" /><path d="M 143.74570117128098 25.957352633546492 a86.0,86.0 0 0,1 28.547481713284135,27.462654790039103" fill="none" id="id50" stroke="none" /><text fill="#e1ed5e" style="font-size:6.75px; font-family:Arial;" text-anchor="middle"><textPath startOffset="19.985693538727396" xlink:href="#id50">February</textPath></text><path d="M 111.2981086023043 82.29822771554956 l 14.584183875094093 -22.85036469368118 a48.107887891475166,48.107887891475166 0 0,0 0.694203635761435,0.4515293552296462 l -14.975354536639808 22.595936414292005" fill="#d7ff1c" stroke="none" /><path d="M 111.60114157652 82.49532879139004 l 14.679282785275587 -22.14920118331462 a47.57194867052535,47.57194867052535 0 0,0 0.6786824999820166,0.45824945356125696 l -15.058369979664144 21.893239817454692" fill="#deff1b" stroke="none" /><path d="M 111.90073688211348 82.69761687909136 l 15.468540927401058 -22.48958397270417 a48.29573493584655,48.29573493584655 0 0,0 0.6808982478774355,0.47701273597856675 l -15.853370314862145 22.21998639396167" fill="#d5ff1c" stroke="none" /><path d="M 112.19680574252982 82.90503203632743 l 15.587661466237677 -21.84757050485221 a47.83824746421642,47.83824746421642 0 0,0 0.6662152156350755,0.4840336869631414 l -15.961421998226541 21.576017583072396" fill="#dbff1b" stroke="none" /><path d="M 112.48926042617603 83.11751280151076 l 15.88329443954716 -21.4704078460467 a47.706880299445935,47.706880299445935 0 0,0 0.6559783418406401,0.49406928721713356 l -16.250518935146182 21.193821969323718" fill="#dcff1b" stroke="none" /><path d="M 113.06298171725822 83.55741782278167 l 16.843812290671938 -21.201573558134275 a48.07804892942565,48.07804892942565 0 0,0 0.6435512456053168,0.5203736846235852 l -17.206266934841747 20.90849377624656" fill="#d8ff1c" stroke="none" /><path d="M 113.6212207817346 84.01681056812373 l 17.13556502637174 -20.10693360216247 a47.41810681435717,47.41810681435717 0 0,0 0.616675191782432,0.5347746494954767 l -17.479134016800934 19.808993959247324" fill="#e0ff1b" stroke="none" /><path d="M 114.16331599549186 84.49514656593476 l 17.677193284759845 -19.351562239597232 a47.210038602408886,47.210038602408886 0 0,0 0.5952783822694677,0.553246380537715 l -18.00767955082416 19.044411272984874" fill="#e3ff1b" stroke="none" /><path d="M 114.42810811169701 84.74124197986012 l 17.879990309313904 -18.909370751878672 a47.02418789690014,47.02418789690014 0 0,0 0.5833613763171717,0.5611931818205064 l -18.202834929243494 18.598794483295865" fill="#e5ff1a" stroke="none" /><path d="M 114.68862486808459 84.99185889309783 l 18.711976976550893 -19.11901170975996 a47.752096948256394,47.752096948256394 0 0,0 0.5824941764325018,0.5799927613228609 l -19.038306953150716 18.79408309778698" fill="#dcff1b" stroke="none" /><path d="M 114.94478906791727 85.2469230424477 l 18.876638774117698 -18.634488802007876 a47.52492534052981,47.52492534052981 0 0,0 0.5697010510977639,0.5871270112924337 l -19.19460408891857 18.306797595165328" fill="#dfff1b" stroke="none" /><path d="M 115.4437574822437 85.77008943001954 l 19.77103068629224 -18.217069185769454 a47.88410802160675,47.88410802160675 0 0,0 0.5533039678510275,0.6109720608796837 l -20.0816782947593 17.874044337620223" fill="#daff1c" stroke="none" /><path d="M 115.68641384162765 86.03803664274999 l 19.826594994312934 -17.647003043807906 a47.542618286383885,47.542618286383885 0 0,0 0.538834760903426,0.6159812787193487 l -20.12742161879421 17.30310620888561" fill="#deff1b" stroke="none" /><path d="M 115.9244219780498 86.31012108654704 l 19.758836814488504 -16.986241876400634 a47.0565547481852,47.0565547481852 0 0,0 0.5227521327911432,0.618773640714253 l -20.04829956076676 16.643609286057274" fill="#e5ff1a" stroke="none" /><path d="M 116.15771136456269 86.58626213691792 l 18.43377847124858 -15.30327325822647 a44.958179420461335,44.958179420461335 0 0,0 0.48919103767022754,0.5996903695843103 l -18.694468000995215 14.98369871903406" fill="#fffd18" stroke="none" /><path d="M 116.38621287248628 86.86637796730983 l 19.64629311083865 -15.74659075096277 a46.178005347431565,46.178005347431565 0 0,0 0.49178678391729413,0.6245192738451348 l -19.914433975349908 15.406079083164597" fill="#f0ff19" stroke="none" /><path d="M 116.60985879189232 87.15038557335679 l 20.866792046514245 -16.142836340639704 a47.38208057438132,47.38208057438132 0 0,0 0.49350481065985,0.6493944828446898 l -21.14157279739821 15.781257081913981" fill="#e1ff1b" stroke="none" /><path d="M 116.82858285166822 87.43820079747576 l 18.612959438007532 -13.893758083248313 a44.2266823441649,44.2266823441649 0 0,0 0.45013788292531104,0.6139875664349966 l -18.84935993344647 13.571308073141822" fill="#fff417" stroke="none" /><path d="M 117.2510076193507 88.02491185347247 l 23.424247923341493 -16.260350690094167 a49.514810105259585,49.514810105259585 0 0,0 0.4800001868804486,0.7043410453349332 l -23.700672575890675 15.854731621488828" fill="#c5ff1e" stroke="none" /><path d="M 117.45458315368197 88.32363383020206 l 18.75804708613658 -12.54832753550115 a43.568226656605816,43.568226656605816 0 0,0 0.41162298857900664,0.6269300514358408 l -18.971266710073508 12.223579420087635" fill="#ffeb16" stroke="none" /><path d="M 117.65298651832404 88.62581576622439 l 19.849527531053553 -12.789461027302641 a44.613006089334455,44.613006089334455 0 0,0 0.41038102976050256,0.649124235863647 l -20.06673615706001 12.445889143724788" fill="#fff917" stroke="none" /><line stroke="#e1ed5e" stroke-width="0.3" x1="172.23445277983987" x2="176.4835382374775" y1="55.19839476539836" y2="52.563006222186495" /><path d="M 173.08426987136738 54.67131705675599 a86.0,86.0 0 0,1 12.851231095245387,41.99856678651699" fill="none" id="id51" stroke="none" /><text fill="#e1ed5e" style="font-size:6.75px; font-family:Arial;" text-anchor="middle"><textPath startOffset="22.20632615414155" xlink:href="#id51">March</textPath></text><path d="M 118.03404312379186 89.2402003453031 l 19.213660019323303 -11.46360419692232 a43.373621801618036,43.373621801618036 0 0,0 0.37702071633658407,0.644450617280036 l -19.408140410130216 11.131174167288389" fill="#ffe815" stroke="none" /><path d="M 118.21658344932153 89.55222093294921 l 19.30424828467222 -11.071588791325263 a43.253855400816946,43.253855400816946 0 0,0 0.36486142709032143,0.6490477664615901 l -19.49196735305497 10.73765751492888" fill="#ffe615" stroke="none" /><path d="M 118.3937258080291 89.86733742301442 l 22.745748315066248 -12.530087440848957 a46.9686764716198,46.9686764716198 0 0,0 0.38400673050501777,0.7115061511108368 l -22.95806314478973 12.136700306405661" fill="#e6ff1a" stroke="none" /><path d="M 118.56541770881063 90.18545643968196 l 20.021009747410208 -10.584037233606525 a43.64647158981425,43.64647158981425 0 0,0 0.34541104067010037,0.6672241884485365 l -20.200230221240425 10.237840322897643" fill="#ffec16" stroke="none" /><path d="M 118.89224826269711 90.83032412892265 l 19.231745956565238 -9.334456884351225 a42.377374438028525,42.377374438028525 0 0,0 0.31286974633886355,0.6589834775228052 l -19.38957389674586 9.002030991187878" fill="#ffda14" stroke="none" /><path d="M 119.04729006885535 91.15688171328212 l 19.240123273855716 -8.932645292148088 a42.212602280448756,42.212602280448756 0 0,0 0.30030785598318,0.6616885533441468 l -19.391033446802243 8.600134729961878" fill="#ffd814" stroke="none" /><path d="M 119.196687751892 91.48605970444005 l 19.598169535015238 -8.692001843231326 a42.43919646735708,42.43919646735708 0 0,0 0.29042413329385225,0.6703389414895032 l -19.744884378151774 8.35336375715522" fill="#ffdb14" stroke="none" /><path d="M 119.34039704204932 91.81776055985345 l 19.53363216680698 -8.263990401906854 a42.209816665660384,42.209816665660384 0 0,0 0.27733520477955675,0.6715891964048143 l -19.672989058472734 7.926526635048736" fill="#ffd814" stroke="none" /><path d="M 119.47837535516314 92.15188598940014 l 19.839562735034086 -7.993641534570977 a42.38940285516572,42.38940285516572 0 0,0 0.266864403529332,0.6791407986901897 l -19.97422068844512 7.650951730985003" fill="#ffda14" stroke="none" /><path d="M 119.7369772167798 92.82701384747503 l 11.936296403013015 -4.337994003380379 a33.70013243214202,33.70013243214202 0 0,0 0.19344986385695906,0.546908815362449 l -12.009199347679784 4.1318875615913155" fill="#ff5c08" stroke="none" /><path d="M 120.08093135843002 93.85539295169968 l 20.95625245909893 -6.412448420231417 a42.91538299623391,42.91538299623391 0 0,0 0.2100689664383605,0.7082481239529681 l -21.06352732264899 6.050770909531919" fill="#ffe215" stroke="none" /><path d="M 120.18372546131832 94.20196356495316 l 21.073127260410256 -6.053528615933578 a42.92537117672977,42.92537117672977 0 0,0 0.19789256229794114,0.7119248370190906 l -21.17420659327456 5.689892475495535" fill="#ffe215" stroke="none" /><path d="M 120.28053869075195 94.5502522615342 l 20.566552688495676 -5.526604875307246 a42.296160474048804,42.296160474048804 0 0,0 0.18288792946885468,0.7047417969251956 l -20.658636949834836 5.171766652833201" fill="#ffd914" stroke="none" /><path d="M 120.67395015179393 96.31383870115 l 17.367337717069784 -3.096592943616309 a38.64123882376771,38.64123882376771 0 0,0 0.11111773719618184,0.6558231749463147 l -17.41806731578619 2.7971839803541565" fill="#ffa60f" stroke="none" /><path d="M 120.73433829027371 96.67025291283417 l 20.830178055574564 -3.345138086139492 a42.09706772616235,42.09706772616235 0 0,0 0.10873894417290286,0.7164537795724313 l -20.884672893186764 2.986085194174979" fill="#ffd614" stroke="none" /><path d="M 120.87857604477298 97.74499172005257 l 21.13473179298451 -2.2826745983752 a42.25764547835573,42.25764547835573 0 0,0 0.07188402658991616,0.7238623377800785 l -21.170892945256654 1.9185367298906866" fill="#ffd914" stroke="none" /><path d="M 120.94382443527127 98.46500227214037 l 19.863365582026862 -1.4558096173069628 a40.916643138016326,40.916643138016326 0 0,0 0.0454358064791323,0.7028718158682207 l -19.88548197951041 1.1136787371857069" fill="#ffc612" stroke="none" /><path d="M 120.96714384426684 98.82574320788733 l 20.184867963289914 -1.1304457335647842 a41.216498268789834,41.216498268789834 0 0,0 0.03357455079187301,0.7087057023215413 l -20.201336122315283 0.7828289246202431" fill="#ffca12" stroke="none" /><line stroke="#e1ed5e" stroke-width="0.3" x1="184.98032266829074" x2="189.97916517819016" y1="98.17113171792111" y2="98.06355123074" /><path d="M 185.9800911702706 98.14961562048488 a86.0,86.0 0 0,1 -9.607161424134198,41.387399972396054" fill="none" id="id52" stroke="none" /><text fill="#e1ed5e" style="font-size:6.75px; font-family:Arial;" text-anchor="middle"><textPath startOffset="21.466115282336823" xlink:href="#id52">April</textPath></text><path d="M 120.99513854157772 99.54816195383933 l 20.94354401719687 -0.45072767629848903 a41.94839352882326,41.94839352882326 0 0,0 0.009322516858204056,0.7220392044419394 l -20.94819954117279 0.09015221379608693" fill="#ffd413" stroke="none" /><path d="M 120.99824983174949 100.27111621757518 l 41.334383513621724 0.5336836071485839 a62.337828663872784,62.337828663872784 0 0,0 -0.023088558271445143,1.072834578126406 l -41.31907289266527 -1.2451080010651046" fill="#30ff2f" stroke="none" /><path d="M 120.9904718944345 100.63252640178507 l 21.66574906936762 0.6528751887878669 a42.67558370030525,42.67558370030525 0 0,0 -0.028446054815915778,0.7340662775956414 l -21.651300881700504 -1.0257187133975143" fill="#ffde14" stroke="none" /><path d="M 120.9764740272857 100.99374915477107 l 21.42376004536461 1.0149390888767027 a42.447787667624155,42.447787667624155 0 0,0 -0.04085831835781027,0.7295527213444748 l -21.403115376119267 -1.3835635265566009" fill="#ffdb14" stroke="none" /><path d="M 120.95626037817324 101.35467743843564 l 20.9325452599106 1.3531444198970048 a41.97623538386486,41.97623538386486 0 0,0 -0.05281698062654792,0.7206457373627662 l -20.906151720619714 -1.7132632937565413" fill="#ffd513" stroke="none" /><path d="M 120.92983693683757 101.71520430193887 l 20.543541699403157 1.6835473303597064 a41.612409785580084,41.612409785580084 0 0,0 -0.0646486509113491,0.7133924757215436 l -20.511518452214734 -2.0369211946298207" fill="#ffd013" stroke="none" /><path d="M 120.89721153311464 102.0752229133903 l 21.206247724275162 2.105912126826595 a42.31055626747553,42.31055626747553 0 0,0 -0.07820944840541166,0.7241223593157713 l -21.166855974368698 -2.470630808027158" fill="#ffd914" stroke="none" /><path d="M 120.81339534386255 102.79330883721812 l 41.89602708520079 5.622751154627454 a63.271650264340785,63.271650264340785 0 0,0 -0.15415971569146203,1.0781926924936325 l -41.793033318492725 -6.343089319101495" fill="#31ff3c" stroke="none" /><path d="M 120.76222939487914 103.15116336523771 l 24.579416175945614 3.7305124762601 a45.86090148980662,45.86090148980662 0 0,0 -0.1251745912764519,0.779462299366944 l -24.511559830307874 -4.153054005320248" fill="#f5ff19" stroke="none" /><path d="M 120.70491114924044 103.5080841355445 l 21.591545079272393 3.6583087079447862 a42.899270342019996,42.899270342019996 0 0,0 -0.12962434877400464,0.7270021867595939 l -21.525374288159203 -4.029429645437599" fill="#ffe115" stroke="none" /><path d="M 120.64145759157962 103.86396538481128 l 20.987393435257435 3.92872263944827 a42.351944754143595,42.351944754143595 0 0,0 -0.1403060778646067,0.7154176682623429 l -20.916657424417163 -4.289404034778558" fill="#ffda14" stroke="none" /><path d="M 120.5718875245553 104.21870165774334 l 20.544333492917648 4.213051119414828 a41.97187255356613,41.97187255356613 0 0,0 -0.15123057539527357,0.7064989009957817 l -20.46876887879793 -4.566063839826779" fill="#ffd513" stroke="none" /><path d="M 120.49622156327973 104.57218783832717 l 21.07178133655902 4.700580644166684 a42.58970650768721,42.58970650768721 0 0,0 -0.16577421462486686,0.714150977889641 l -20.9877465560036 -5.06260027940489" fill="#ffdd14" stroke="none" /><path d="M 120.13307415673323 105.97154293290107 l 20.772686686838743 6.1612543328697305 a42.66715410809351,42.66715410809351 0 0,0 -0.21490679038053667,0.7023278253872675 l -20.663553123952074 -6.517909130809055" fill="#ffde14" stroke="none" /><path d="M 120.02730092923936 106.31721596034902 l 20.51622939111288 6.471438773184818 a42.51267505969083,42.51267505969083 0 0,0 -0.22614263019980002,0.6959954500194407 l -20.40179450989683 -6.823633123182054" fill="#ffdc14" stroke="none" /><path d="M 119.9155931802556 106.66101706037122 l 21.136125242140974 7.069239141097828 a43.28699020248132,43.28699020248132 0 0,0 -0.24242604517534944,0.7046035643959109 l -21.011308366022394 -7.432015408583039" fill="#ffe715" stroke="none" /><path d="M 119.79798401119884 107.00284435728193 l 20.7234594387929 7.330198918850626 a42.981664798217935,42.981664798217935 0 0,0 -0.2527234678183615,0.6953864430256461 l -20.594211709969315 -7.685833158882404" fill="#ffe315" stroke="none" /><path d="M 119.54520255179757 107.68017299344265 l 39.173944426338245 15.393172275010057 a63.08975735978975,63.08975735978975 0 0,0 -0.4058695850687157,1.0073350250181434 l -38.903172227012135 -16.065206667871013" fill="#30ff39" stroke="none" /><path d="M 119.41010516605496 108.01547362559984 l 23.247951423811674 9.60032621629851 a46.152206838829386,46.152206838829386 0 0,0 -0.30954728805041565,0.7316783501605051 l -23.07925315456895 -9.99907909212518" fill="#f1ff19" stroke="none" /><path d="M 119.12269723197855 108.67885076344098 l 19.83269855270133 9.00108540584773 a42.77970317441646,42.77970317441646 0 0,0 -0.3101027003430395,0.6679336285075841 l -19.67482123551846 -9.341139101634145" fill="#ffe015" stroke="none" /><path d="M 118.97047184881838 109.00673069616215 l 19.97716943707392 9.484686866264395 a43.11439765556929,43.11439765556929 0 0,0 -0.32406986966427664,0.6676799178331414 l -19.81094631079493 -9.827155740062812" fill="#ffe415" stroke="none" /><line stroke="#e1ed5e" stroke-width="0.3" x1="174.80103733775053" x2="179.2010983576182" y1="140.37084112569926" y2="142.7455964860345" /><path d="M 175.68104954172406 140.8457921977663 a86.0,86.0 0 0,1 -30.038265399797805,32.042727171017184" fill="none" id="id53" stroke="none" /><text fill="#e1ed5e" style="font-size:6.75px; font-family:Arial;" text-anchor="middle"><textPath startOffset="22.206326154141568" xlink:href="#id53">May</textPath></text><path d="M 118.48025628344425 109.97397251340804 l 44.43539406996801 23.982210651123893 a71.49406572923425,71.49406572923425 0 0,0 -0.5938215070191818,1.0779585223562234 l -44.01599615349732 -24.743539691877924" fill="#3cffa3" stroke="none" /><path d="M 118.12598468904814 110.60418214915192 l 21.069996401589076 12.326507141949891 a45.410807579502944,45.410807579502944 0 0,0 -0.4005214292243734,0.6712969533296155 l -20.854694096666478 -12.68736618916561" fill="#fbff18" stroke="none" /><path d="M 117.94076556474637 110.91462005526583 l 18.522477264789227 11.268515889017017 a42.68090437148928,42.68090437148928 0 0,0 -0.38724864255804414,0.6243681144556876 l -18.32576398256322 -11.585680334837978" fill="#ffde14" stroke="none" /><path d="M 117.75023020441432 111.22182372390056 l 18.350554423755177 11.601353030791222 a42.71023352716984,42.71023352716984 0 0,0 -0.3982121908881097,0.6180341633913091 l -18.14813736949002 -11.915508794103983" fill="#ffdf14" stroke="none" /><path d="M 117.55443506779139 111.5257021239791 l 18.145073419171354 11.91349709856612 a42.706568188100626,42.706568188100626 0 0,0 -0.40875655163683405,0.6110355838798494 l -17.937313762123797 -12.224069596651775" fill="#ffdf14" stroke="none" /><path d="M 117.14729908036423 112.12312394758627 l 17.148572666250598 12.124024371582255 a42.00155973856222,42.00155973856222 0 0,0 -0.4224561032632207,0.5867545783776632 l -16.937336770611775 -12.41741255541105" fill="#ffd513" stroke="none" /><path d="M 116.93607887273984 112.41649034213515 l 40.802622705854795 29.913970911914543 a71.59347463255718,71.59347463255718 0 0,0 -0.7372039174972012,0.9876051196299234 l -40.281657521662495 -30.611888911053782" fill="#3cffa4" stroke="none" /><path d="M 116.71984013943494 112.70617746262583 l 17.230561339359564 13.094298051462204 a42.641462185581624,42.641462185581624 0 0,0 -0.44914289234781807,0.5805777334307325 l -17.00261162979368 -13.388953779006188" fill="#ffde14" stroke="none" /><path d="M 116.498646956653 112.99209946851258 l 16.92356830730753 13.326709965270442 a42.54085334313714,42.54085334313714 0 0,0 -0.45798690222784244,0.5714090792346964 l -16.691663493024834 -13.616046878083388" fill="#ffdd14" stroke="none" /><path d="M 116.27256486870786 113.27417163493432 l 17.190503864444835 14.022970602898091 a43.18461466068854,43.18461466068854 0 0,0 -0.4748333461051864,0.5719673539881023 l -16.946574518446106 -14.316799213999964" fill="#ffe515" stroke="none" /><path d="M 116.0416608686014 113.55231037782055 l 16.769155145911135 14.166911841157022 a42.952356489059504,42.952356489059504 0 0,0 -0.48200212086823996,0.5606773599347218 l -16.522810515472116 -14.453466300253272" fill="#ffe215" stroke="none" /><path d="M 115.56566222782051 114.09645910891815 l 18.48499960693296 16.740247685818105 a45.93854653043858,45.93854653043858 0 0,0 -0.5358481897184092,0.581557378636552 l -18.194105009218827 -17.055956319255994" fill="#f4ff19" stroke="none" /><path d="M 115.32070863581623 114.36230785411682 l 36.58227410127396 34.29383686717371 a71.14309549173308,71.14309549173308 0 0,0 -0.8452255352289586,0.8862155945204044 l -35.986542014666036 -34.91845957827662" fill="#3bff9f" stroke="none" /><path d="M 115.07121518719521 114.62390073753431 l 15.902250175375825 15.430270564095935 a43.157951401730394,43.157951401730394 0 0,0 -0.5219222077079535,0.5287044408769354 l -15.634287342612335 -15.701715498953535" fill="#ffe515" stroke="none" /><path d="M 114.81725581225074 114.88116024355365 l 15.990916604914297 16.05988284566749 a43.66339010125998,43.66339010125998 0 0,0 -0.5371637577187995,0.5257277949121512 l -15.712102894819703 -16.332760743502217" fill="#ffec16" stroke="none" /><path d="M 114.55890576462653 115.13401014063108 l 16.595648293245105 17.251207860040783 a44.9378302045825,44.9378302045825 0 0,0 -0.5620741749987725,0.5314762153624397 l -16.296238283855526 -17.534318712149144" fill="#fffd17" stroke="none" /><path d="M 114.29624159901734 115.38237550388516 l 17.532707988167555 18.864727208618092 a46.75410223738987,46.75410223738987 0 0,0 -0.594223378639603,0.5428089674869561 l -17.205385060061086 -19.16372894269163" fill="#e9ff1a" stroke="none" /><path d="M 113.75828350139079 115.86535959552629 l 32.714883208573156 37.72515562549573 a70.93446655686284,70.93446655686284 0 0,0 -0.9293581262087542,0.7920191571490667 l -32.06065960578736 -38.282699172867744" fill="#3bff9c" stroke="none" /><path d="M 113.20401910651253 116.32954008644616 l 14.801476877642283 18.30513179830624 a44.54063652310067,44.54063652310067 0 0,0 -0.6003282589268353,0.47693707631761817 l -14.484191125998098 -18.557202788628985" fill="#fff817" stroke="none" /><path d="M 112.92097659922987 116.55440617244103 l 15.45122520622457 19.79617066568683 a46.11232234180004,46.11232234180004 0 0,0 -0.6299190734433359,0.4829950843890829 l -15.108177404287742 -20.059205091903284" fill="#f1ff19" stroke="none" /><path d="M 112.34349029814194 116.9893568818739 l 14.147822766060484 19.472807469236113 a45.069713744741485,45.069713744741485 0 0,0 -0.6315611950833777,0.450602143702235 l -13.810534243128222 -19.71345387478257" fill="#ffff18" stroke="none" /><path d="M 111.7513745106137 117.40417183066458 l 28.372875664211403 42.02116126449859 a71.70303804974408,71.70303804974408 0 0,0 -1.0288542638856644,0.6818685043951612 l -27.645346701585776 -42.503327789985065" fill="#3cffa6" stroke="none" /><path d="M 111.45004920935366 117.60387380957326 l 13.831254759836632 21.264857379068655 a46.367257786044476,46.367257786044476 0 0,0 -0.6728070112661384,0.42941726735202645 l -13.463165946523564 -21.49978907524449" fill="#eeff19" stroke="none" /><line stroke="#e1ed5e" stroke-width="0.3" x1="143.8653032363475" x2="146.44561519142675" y1="172.8068346515853" y2="177.08958963109032" /><path d="M 144.38136562736335 173.6633856474863 a86.0,86.0 0 0,1 -40.68145358897372,12.25698825130547" fill="none" id="id54" stroke="none" /><text fill="#e1ed5e" style="font-size:6.75px; font-family:Arial;" text-anchor="middle"><textPath startOffset="21.466115282336833" xlink:href="#id54">June</textPath></text><path d="M 110.8373102113329 117.98757091392108 l 12.660747261784177 21.014078655460498 a45.533365504240464,45.533365504240464 0 0,0 -0.674830775482266,0.3987019170090606 l -12.29714861527353 -21.228899144763307" fill="#f9ff18" stroke="none" /><path d="M 110.21172684928248 118.3499491758327 l 12.262558726328862 22.035188828969588 a46.217452156096385,46.217452156096385 0 0,0 -0.6984935718046252,0.38087438797419193 l -11.881442342655587 -22.24300386870355" fill="#f0ff19" stroke="none" /><path d="M 109.57404056367764 118.69057910512821 l 23.19002202456177 45.271893117323884 a71.86571957542779,71.86571957542779 0 0,0 -1.1058631643983825,0.554502747972057 l -22.407304952480626 -45.66436370620524" fill="#3cffa8" stroke="none" /><path d="M 109.2508944713604 118.85261126421891 l 10.902606249438332 22.2186728022721 a45.74946957259322,45.74946957259322 0 0,0 -0.7099605990198542,0.3408242317640814 l -10.518532982418243 -22.40305131053574" fill="#f6ff19" stroke="none" /><path d="M 108.92500713936063 119.00905698771935 l 10.647989734240177 22.678776666762676 a46.0540734508659,46.0540734508659 0 0,0 -0.7204874787565453,0.33074046381784816 l -10.256034259716213 -22.8587042009146" fill="#f2ff19" stroke="none" /><path d="M 108.59647513512805 119.15986991738527 l 10.424939394179667 23.235160871099577 a46.466685337479554,46.466685337479554 0 0,0 -0.7325789920201512,0.32114110158957687 l -10.023439727501762 -23.41116652598361" fill="#edff1a" stroke="none" /><path d="M 108.2653958097858 119.30500536409082 l 11.40415972678585 26.636034107150003 a49.97469882554955,49.97469882554955 0 0,0 -0.7937137314923565,0.33177240413589465 l -10.943974535796032 -26.82839155430587" fill="#bfff1e" stroke="none" /><path d="M 107.2578585660854 119.70592522655815 l 8.738385683282832 23.72572754176365 a46.283780012802765,46.283780012802765 0 0,0 -0.7499745237368202,0.26891418139655293 l -8.328691598916276 -23.872629264200164" fill="#efff19" stroke="none" /><path d="M 106.91757812671514 119.82793768551818 l 16.602001861132624 47.58651833451858 a71.39943643532658,71.39943643532658 0 0,0 -1.163913721096992,0.39486272784553117 l -15.780418407098406 -47.86524404926224" fill="#3cffa2" stroke="none" /><path d="M 106.57524785965236 119.94407469862006 l 7.933956780716789 24.06531739453009 a46.339439052547206,46.339439052547206 0 0,0 -0.7596990355357762,0.24323164067372868 l -7.518536400090073 -24.198321881863524" fill="#eeff19" stroke="none" /><path d="M 105.88484417918355 120.15858648285463 l 7.1490944274015185 24.489287039858695 a46.51146273447476,46.51146273447476 0 0,0 -0.7704708671994236,0.21774276309603424 l -6.726492392097489 -24.608718596293247" fill="#ecff1a" stroke="none" /><path d="M 105.53697534728816 120.25689768951611 l 6.8074749899335165 24.904991578581146 a46.81860416962482,46.81860416962482 0 0,0 -0.779216648167112,0.20579819897084117 l -6.377767898954907 -25.01848112685557" fill="#e8ff1a" stroke="none" /><path d="M 104.83641907484287 120.43548508189849 l 11.670706466714307 49.31263073051734 a71.67485509596027,71.67485509596027 0 0,0 -1.2030448674529683,0.2738090950544802 l -10.820141449868476 -49.50621655914951" fill="#3cffa5" stroke="none" /><path d="M 104.48393922423573 120.51570834832081 l 5.385972402318036 24.642849390291524 a46.224565898962915,46.224565898962915 0 0,0 -0.778792671751118,0.16320357642476063 l -4.96098826913754 -24.731908947442825" fill="#f0ff19" stroke="none" /><path d="M 103.7750983002368 120.6578951692458 l 4.580140389126841 25.06320431790498 a46.478263219167076,46.478263219167076 0 0,0 -0.7882514880809116,0.1370476250669362 l -4.14803992957388 -25.13833052149292" fill="#ecff1a" stroke="none" /><path d="M 103.41894727170886 120.7198165907248 l 4.118718005725565 24.96063111991057 a46.29816088009039,46.29816088009039 0 0,0 -0.7874306022500677,0.12298046574321207 l -3.68845153986698 -25.027829893000888" fill="#efff19" stroke="none" /><path d="M 102.70371172650421 120.8252237178851 l 3.2713599289294364 25.19750967303213 a46.408980489330006,46.408980489330006 0 0,0 -0.7930909724649559,0.0960322718837781 l -2.8371415334131003 -25.25008747364126" fill="#edff19" stroke="none" /><path d="M 101.98527174616119 120.90594882070398 l 1.174243277145227 12.365395267686766 a33.42102441025099,33.42102441025099 0 0,0 -0.573179611821454,0.04945634872198056 l -0.961219347582231 -12.38377586868741" fill="#ff5808" stroke="none" /><path d="M 101.26447882468166 120.96189622390904 l 3.13526328263335 51.97482336783155 a73.06930132015137,73.06930132015137 0 0,0 -1.2561376004412061,0.06492796582785337 l -2.2401376137786646 -52.0210911404216" fill="#3effb6" stroke="none" /><path d="M 100.90346689309514 120.98055641714683 l 1.0951252986882347 25.431300569586767 a46.45486884822806,46.45486884822806 0 0,0 -0.7991999371660945,0.02752606176989896 l -0.6572050098474881 -25.446383429782763" fill="#edff1a" stroke="none" /><line stroke="#e1ed5e" stroke-width="0.3" x1="102.19456741930631" x2="102.32365962044197" y1="184.97166512339345" y2="189.96999836594603" /><path d="M 102.22038585953345 185.97133177190398 a86.0,86.0 0 0,1 -42.740103519485714,-10.115201625700543" fill="none" id="id55" stroke="none" /><text fill="#e1ed5e" style="font-size:6.75px; font-family:Arial;" text-anchor="middle"><textPath startOffset="22.20632615414155" xlink:href="#id55">July</textPath></text><path d="M 100.54218724476979 120.99299961872073 l 0.6408273223918629 24.81225418785003 a45.82052814787802,45.82052814787802 0 0,0 -0.7886374239547985,0.013577108451479778 l -0.21363020854439638 -24.81960877358067" fill="#f5ff19" stroke="none" /><path d="M 99.81925306533755 120.99922214144158 l -0.43570089275707724 50.61983403102849 a71.62170910386985,71.62170910386985 0 0,0 -1.2327129880438021,-0.021222272009726074 l 1.3069735706935472 -50.604834281739606" fill="#3cffa5" stroke="none" /><path d="M 99.09653310690486 120.98055641714683 l -1.1072709538399204 25.71335031051341 a46.737179976765084,46.737179976765084 0 0,0 -0.8034609343008748,-0.04152975284553261 l 1.549719956554284 -25.690480750905675" fill="#e9ff1a" stroke="none" /><path d="M 98.73552117531835 120.96189622390904 l -1.4953913094929645 24.789847668361585 a45.834909756008365,45.834909756008365 0 0,0 -0.7871321578263686,-0.054285242122790484 l 1.9218862280982634 -24.76043408172251" fill="#f5ff19" stroke="none" /><path d="M 98.37488393609728 120.93702456842531 l -1.9451063561228392 25.059588340135914 a46.13496382558975,46.13496382558975 0 0,0 -0.7912271129797415,-0.06827040461795317 l 2.3761777868441225 -25.022393683239297" fill="#f1ff19" stroke="none" /><path d="M 97.65516085044442 120.86867818915974 l -2.7023270620708413 24.05026111531029 a45.2016038986057,45.2016038986057 0 0,0 -0.7724579082525235,-0.09353389515143487 l 3.1159123933747543 -24.000181691433504" fill="#fdff18" stroke="none" /><path d="M 97.2962882734958 120.8252237178851 l -6.517678321020008 50.2021379816066 a71.6234608518675,71.6234608518675 0 0,0 -1.2212530253001452,-0.16925454122368225 l 7.380859937506984 -50.08250887489031" fill="#3cffa5" stroke="none" /><path d="M 96.58105272829116 120.7198165907248 l -3.962502001900644 24.013916622564675 a45.3386444501446,45.3386444501446 0 0,0 -0.7689240406181921,-0.1336873005849356 l 4.375275013990886 -23.942150743458733" fill="#fcff18" stroke="none" /><path d="M 96.22490169976321 120.6578951692458 l -4.662893419594799 25.516041116416325 a46.93859921617104,46.93859921617104 0 0,0 -0.7935582308752557,-0.15208732363174646 l 5.10141926504175 -25.43199659443611" fill="#e6ff1a" stroke="none" /><path d="M 95.86986931433489 120.58985236759428 l -4.883662101810539 24.346416455657828 a45.8313944384319,45.8313944384319 0 0,0 -0.7721685089007105,-0.16181541869393276 l 5.302022072140636 -24.258745056237352" fill="#f5ff19" stroke="none" /><path d="M 95.16358092515715 120.4354850818985 l -5.795960375722264 24.489867391649828 a46.16638157418615,46.16638157418615 0 0,0 -0.7717407908052198,-0.18967511001976828 l 6.216654451270695 -24.386471023316027" fill="#f1ff19" stroke="none" /><path d="M 94.81253420990036 120.34920634021253 l -12.519296792538153 49.11025228386642 a71.68086099865178,71.68086099865178 0 0,0 -1.1930069517395225,-0.3150839790258603 l 13.362794187089165 -48.88747695553698" fill="#3cffa5" stroke="none" /><path d="M 94.11515582081647 120.15858648285463 l -7.088098079392488 24.280343503031084 a46.29379795539356,46.29379795539356 0 0,0 -0.7630210476461281,-0.22989198249868253 l 7.504994101478862 -24.154736151426675" fill="#efff19" stroke="none" /><path d="M 93.76903079525671 120.05430185196036 l -7.3364892173342655 23.61240514334002 a45.72589231330777,45.72589231330777 0 0,0 -0.7496404142924813,-0.24001118779241523 l 7.741850976717687 -23.482621108887898" fill="#f6ff19" stroke="none" /><path d="M 93.08242187328487 119.8279376855182 l -8.283259560543181 23.742406864208967 a46.14585995055582,46.14585995055582 0 0,0 -0.7477396904330588,-0.2681128496853832 l 8.690718811605967 -23.596306473483626" fill="#f1ff19" stroke="none" /><path d="M 92.7421414339146 119.70592522655815 l -8.575598597831034 23.283741781838252 a45.81276934714144,45.81276934714144 0 0,0 -0.7376505517004291,-0.2789163204044394 l 8.975119370291745 -23.132677211327177" fill="#f5ff19" stroke="none" /><path d="M 92.40401165467489 119.57807347666478 l -17.522231539414378 45.162198907916405 a69.44226262592463,69.44226262592463 0 0,0 -1.1106758308578217,-0.44196083483511867 l 18.297028446314055 -44.853891228675224" fill="#39ff8a" stroke="none" /><path d="M 91.7346041902142 119.30500536409082 l -10.016299311237765 23.394489070063717 a46.44854358782901,46.44854358782901 0 0,0 -0.7322929749613729,-0.32101572011627 l 10.41751296085688 -23.218608796652994" fill="#edff1a" stroke="none" /><path d="M 91.40352486487194 119.15986991738527 l -10.207852289124338 22.751315966272777 a45.9363715595064,45.9363715595064 0 0,0 -0.7186461055055785,-0.32989517967198406 l 10.597966390397335 -22.57223371626672" fill="#f4ff19" stroke="none" /><path d="M 90.7491055286396 118.85261126421891 l -11.012885787451598 22.443414016972838 a45.999809721370006,45.999809721370006 0 0,0 -0.7078408932760611,-0.354926118424517 l 11.397580588410419 -22.25052005763902" fill="#f3ff19" stroke="none" /><path d="M 90.42595943632237 118.69057910512821 l -7.506095433866255 14.653507006181801 a37.46410447739345,37.46410447739345 0 0,0 -0.5714330234669985,-0.29894675028536466 l 7.757219359859749 -14.52213083695172" fill="#ff940d" stroke="none" /><line stroke="#e1ed5e" stroke-width="0.3" x1="58.666819895761336" x2="56.23545636021788" y1="174.27360380694188" y2="178.64263932499728" /><path d="M 58.180547188652646 175.14741091055294 a86.0,86.0 0 0,1 -31.652253787137756,-30.449443065178592" fill="none" id="id56" stroke="none" /><text fill="#e1ed5e" style="font-size:6.75px; font-family:Arial;" text-anchor="middle"><textPath startOffset="22.20632615414155" xlink:href="#id56">August</textPath></text><path d="M 89.7882731507175 118.34994917583269 l -24.121749420451955 43.345546001219745 a70.60539439664734,70.60539439664734 0 0,0 -1.0568996566952655,-0.6001352084582333 l 24.864297844068428 -42.92390762696688" fill="#3bff98" stroke="none" /><path d="M 89.4739219176387 118.17145234162733 l -12.686679202135895 21.901356297312557 a46.310496574341244,46.310496574341244 0 0,0 -0.6863483067888115,-0.40550667751787095 l 13.06179537995309 -21.679731047500933" fill="#efff19" stroke="none" /><path d="M 89.1626897886671 117.98757091392108 l -5.809835723264588 9.643059950537344 a32.258010318923084,32.258010318923084 0 0,0 -0.4731494355726919,-0.29064702807187787 l 5.974964358769589 -9.541624455637088" fill="#ff4606" stroke="none" /><path d="M 88.54995079064634 117.60387380957326 l -13.823259823664365 21.25256556748611 a46.3525946473498,46.3525946473498 0 0,0 -0.6651052164903386,-0.4407954704108436 l 14.187039738894667 -21.01147207598395" fill="#eeff19" stroke="none" /><path d="M 87.95078237400918 117.19931262002967 l -30.14002849818774 43.02252549565905 a73.52960134910793,73.52960134910793 0 0,0 -1.0303691557718133,-0.7351410346453451 l 30.876124981808438 -42.49734019916949" fill="#3fffbb" stroke="none" /><path d="M 87.36589467227662 116.77436683061367 l -12.75306485957599 16.932310014838606 a42.19773067455938,42.19773067455938 0 0,0 -0.5764436501571546,-0.4419924101222664 l 13.04263723822663 -16.710278262888973" fill="#ffd814" stroke="none" /><path d="M 87.07902340077011 116.55440617244103 l -15.420514346335791 19.756823790889907 a46.062409082325296,46.062409082325296 0 0,0 -0.6208390361019089,-0.4932320781827148 l 15.758310875155058 -19.48845779870206" fill="#f2ff19" stroke="none" /><path d="M 86.51685102203217 116.09983520530335 l -17.558183221632042 20.965714821865284 a48.346864464435086,48.346864464435086 0 0,0 -0.6334234054007613,-0.5398171679098445 l 17.91647210360986 -20.660373263732488" fill="#d4ff1c" stroke="none" /><path d="M 86.24171649860922 115.8653595955263 l -16.28145237739891 18.77495086351131 a45.85124687907576,45.85124687907576 0 0,0 -0.5918252902543543,-0.5222170083028803 l 16.60222002055985 -18.49191071343614" fill="#f5ff19" stroke="none" /><path d="M 85.97065885151581 115.62618273729859 l -33.13957146646056 36.91156940941803 a70.60539439664734,70.60539439664734 0 0,0 -0.8973624559302663,-0.8197193272338219 l 33.77003347185768 -36.33565731559763" fill="#3bff98" stroke="none" /><path d="M 85.18274418774928 114.88116024355367 l -17.5004628807641 17.575939550810432 a45.80281943922393,45.80281943922393 0 0,0 -0.5539073997847419,-0.5611052715822646 l 17.800410905604373 -17.272093785247502" fill="#f5ff19" stroke="none" /><path d="M 84.9287848128048 114.62390073753433 l -17.55316107833533 17.0321823456957 a45.45830532352997,45.45830532352997 0 0,0 -0.5400737792207518,-0.5662651983264423 l 17.84374140893504 -16.727510030786753" fill="#faff18" stroke="none" /><path d="M 84.43433777217949 114.09645910891817 l -18.550091659826904 16.799195866017946 a46.02636374571452,46.02636374571452 0 0,0 -0.526763295673764,-0.5918241468688359 l 18.836513805149007 -16.477397549408245" fill="#f2ff19" stroke="none" /><path d="M 84.19399662182784 113.82643327865904 l -37.3363348289986 32.66027028032434 a70.60539439664734,70.60539439664734 0 0,0 -0.7923185740133005,-0.9216455012787239 l 37.89299591258268 -32.012747679884086" fill="#3bff98" stroke="none" /><path d="M 83.72743513129214 113.27417163493432 l -17.9234043217175 14.62082635210868 a44.13043418741371,44.13043418741371 0 0,0 -0.47510003347695423,-0.592760341732182 l 18.172422267249313 -14.310138176798239" fill="#fff216" stroke="none" /><path d="M 82.44556493220864 111.52570212397912 l -41.773345868904116 27.427094027670062 a70.9725715956838,70.9725715956838 0 0,0 -0.6617183024790152,-1.0270015002836599 l 42.23926903476018 -26.703970927464955" fill="#3bff9d" stroke="none" /><path d="M 82.24976979558568 111.22182372390057 l -20.532790731462004 12.980978584204715 a45.292000745628044,45.292000745628044 0 0,0 -0.4109394134394024,-0.6625651804221012 l 20.753194784569363 -12.625617072417349" fill="#fcff18" stroke="none" /><path d="M 82.05923443525364 110.91462005526583 l -20.644371771614917 12.559412437203733 a45.1646213835938,45.1646213835938 0 0,0 -0.3983500772423883,-0.6676576425118776 l 20.857502724555538 -12.202192700805742" fill="#feff18" stroke="none" /><line stroke="#e1ed5e" stroke-width="0.3" x1="26.63291911575756" x2="22.317208475507996" y1="142.92168965132927" y2="145.44649492493687" /><path d="M 25.769776987707644 143.4266507060508 a86.0,86.0 0 0,1 -11.730757126820373,-40.83630448921669" fill="none" id="id57" stroke="none" /><text fill="#e1ed5e" style="font-size:6.75px; font-family:Arial;" text-anchor="middle"><textPath startOffset="21.46611528233685" xlink:href="#id57">September</textPath></text><path d="M 81.87401531095188 110.60418214915194 l -19.780495352858683 11.572114802066627 a43.91684614855791,43.91684614855791 0 0,0 -0.3761122435762524,-0.6557833992705623 l 19.97675959258731 -11.229911556937758" fill="#ffef16" stroke="none" /><path d="M 81.51974371655577 109.97397251340807 l -21.736242515838516 11.731259679118475 a45.6999330437606,45.6999330437606 0 0,0 -0.36766138390638103,-0.6954767815407275 l 21.934956407969782 -11.35536788249162" fill="#f7ff19" stroke="none" /><path d="M 81.35079622478065 109.6543875284942 l -44.74841174674112 23.16552028144586 a71.38910282755546,71.38910282755546 0 0,0 -0.5555477212782906,-1.0961483589080572 l 45.14053813780568 -22.39181771083512" fill="#3cffa2" stroke="none" /><path d="M 81.02952815118164 109.00673069616217 l -18.987539340211008 9.014833936812037 a42.01889343196636,42.01889343196636 0 0,0 -0.30458772155464614,-0.6560548548329174 l 19.13990167860548 -8.686659014700291" fill="#ffd513" stroke="none" /><path d="M 80.73074385275274 108.34839909993369 l -22.4861304228852 9.742108857182005 a45.5058104616066,45.5058104616066 0 0,0 -0.30521184540791235,-0.7214306444226786 l 22.650493249485418 -9.353603687093168" fill="#f9ff18" stroke="none" /><path d="M 80.58989483394504 108.01547362559985 l -21.517474933906065 8.885719646890736 a44.279985849961676,44.279985849961676 0 0,0 -0.2848623966214135,-0.7070051070192278 l 21.667239944784868 -8.514015172028703" fill="#fff417" stroke="none" /><path d="M 80.45479744820244 107.68017299344265 l -22.81144414397921 8.963623517930847 a45.50935597899476,45.50935597899476 0 0,0 -0.2802200028618744,-0.731566003195674 l 22.96235842643459 -8.569633947902014" fill="#f9ff18" stroke="none" /><path d="M 80.32549172779594 107.34259656027581 l -47.54772825227126 17.744981530608033 a71.75106729393437,71.75106729393437 0 0,0 -0.4218817170372581,-1.160837294298883 l 47.846134230313744 -16.923896439303032" fill="#3cffa6" stroke="none" /><path d="M 80.0844068197444 106.66101706037122 l -24.11601003287844 8.065898555125298 a46.42913013469918,46.42913013469918 0 0,0 -0.24697588641051765,-0.7601136196849188 l 24.251278170305206 -7.649586035462575" fill="#edff1a" stroke="none" /><path d="M 79.97269907076064 106.31721596034903 l -24.6635021047684 7.779613922257187 a46.86137523124579,46.86137523124579 0 0,0 -0.23603232871476898,-0.7713673069790101 l 24.7937612059893 -7.3539196427261295" fill="#e7ff1a" stroke="none" /><path d="M 79.86692584326677 105.97154293290107 l -24.77198792125926 7.347461607378745 a46.83866439355795,46.83866439355795 0 0,0 -0.22261159928084506,-0.7749401809947983 l 24.89479215742621 -6.9199639508793505" fill="#e8ff1a" stroke="none" /><path d="M 79.67330655649465 105.27499134158121 l -24.151809024501606 6.267649179728006 a45.951819681060186,45.951819681060186 0 0,0 -0.1920976121690827,-0.7673344710085156 l 24.25611795096575 -5.850986869322099" fill="#f3ff19" stroke="none" /><path d="M 79.58551787078972 104.9243191809786 l -6.612045610320632 1.5949374967400558 a27.80168896462252,27.80168896462252 0 0,0 -0.10821401534014165,-0.4661831458614217 l 6.638520191591329 -1.48088569353006" fill="#ff0000" stroke="none" /><path d="M 79.29508885075956 103.50808413554451 l -20.572054726406474 3.4855739443203313 a41.86525009166168,41.86525009166168 0 0,0 -0.11426869945142185,-0.7115513005620068 l 20.629005180219185 -3.130943414065111" fill="#ffd313" stroke="none" /><path d="M 79.18660465613746 102.79330883721812 l -24.769416757456735 3.3242356462394747 a45.99148953416558,45.99148953416558 0 0,0 -0.09854988650127768,-0.7855395595134121 l 24.82296815320486 -2.8973783324386537" fill="#f3ff19" stroke="none" /><line stroke="#e1ed5e" stroke-width="0.3" x1="15.007084014347285" x2="10.007500721073583" y1="101.09737516637583" y2="101.16192664675087" /><path d="M 14.007167355692545 101.11028546245083 a86.0,86.0 0 0,1 10.666146001902534,-42.60595125391555" fill="none" id="id58" stroke="none" /><text fill="#e1ed5e" style="font-size:6.75px; font-family:Arial;" text-anchor="middle"><textPath startOffset="22.20632615414155" xlink:href="#id58">October</textPath></text><path d="M 79.05617556472873 98.46500227214037 l -11.843212935692318 -0.8680031196322461 a32.87497882338496,32.87497882338496 0 0,0 0.04622146281826397,-0.5640189210549812 l 11.826516989054557 1.0717359578950056" fill="#ff5007" stroke="none" /><path d="M 79.12142395522702 97.74499172005258 l -22.77027339299212 -2.4593226534104877 a43.90269893058857,43.90269893058857 0 0,0 0.08761650544622293,-0.7506447121650581 l 22.72456653454231 2.850911103900408" fill="#ffef16" stroke="none" /><path d="M 79.26566170972629 96.67025291283419 l -25.267770116310555 -4.057775211636605 a46.5915170773225,46.5915170773225 0 0,0 0.13397976120229738,-0.7907561347754065 l 25.194178493588034 4.49211713472784" fill="#ebff1a" stroke="none" /><path d="M 79.46518482838121 95.60439243477599 l -23.6845064991979 -5.06981899161961 a45.221042766948216,45.221042766948216 0 0,0 0.1694833281609397,-0.7597605278044879 l 23.593728784034923 5.4767576889740575" fill="#fdff18" stroke="none" /><path d="M 79.62865764111835 94.90015583598534 l -47.154613122096904 -11.80487639452232 a69.60979989039848,69.60979989039848 0 0,0 0.30099167465819326,-1.1598437046894636 l 46.9444251155684 12.614816524760649" fill="#39ff8c" stroke="none" /><path d="M 79.81627453868168 94.20196356495316 l -20.739887758912843 -5.957801255046622 a42.57865473209435,42.57865473209435 0 0,0 0.2084206959702863,-0.7026909753337766 l 20.63426116583085 6.313921617126938" fill="#ffdd14" stroke="none" /><path d="M 80.02781315780177 93.51064311812611 l -20.83118020904606 -6.768460745696171 a42.90319907611174,42.90319907611174 0 0,0 0.23425699580549364,-0.7003986006652039 l 20.711585919468792 7.126032449283697" fill="#ffe115" stroke="none" /><path d="M 80.2630227832202 92.82701384747504 l -22.19985446537086 -8.068066701358601 a44.62048345358786,44.62048345358786 0 0,0 0.2685630651129788,-0.7196154933473959 l 22.057686811756252 8.449005331735338" fill="#fff917" stroke="none" /><path d="M 80.38941819471856 92.48833698450439 l -21.51216561803607 -8.240048177086653 a44.036311847570616,44.036311847570616 0 0,0 0.27723259360333996,-0.7055267115159818 l 21.367139474551042 8.609123893498397" fill="#fff116" stroke="none" /><path d="M 80.95270993114464 91.15688171328213 l -23.028106878215826 -10.691298988312287 a46.388926335156796,46.388926335156796 0 0,0 0.34248680594022135,-0.7213645583351478 l 22.840661878433853 11.086105962287967" fill="#eeff19" stroke="none" /><path d="M 81.10775173730289 90.83032412892265 l -22.56119697476733 -10.950462890678342 a46.078282366509356,46.078282366509356 0 0,0 0.3524768896421453,-0.7105719010872112 l 22.369360072171773 11.337194380264515" fill="#f2ff19" stroke="none" /><path d="M 81.26839172434947 90.50648371742162 l -21.083943758512323 -10.685722252295616 a44.63720255159896,44.63720255159896 0 0,0 0.35325152353319217,-0.6823695057644676 l 20.896882801819014 11.047064480320419" fill="#fff917" stroke="none" /><line stroke="#e1ed5e" stroke-width="0.3" x1="26.266209847984243" x2="21.928928074336255" y1="57.711370442889674" y2="55.22380399835377" /><path d="M 25.398753493254645 57.213857153982495 a86.0,86.0 0 0,1 29.58750427330803,-30.492523968695096" fill="none" id="id59" stroke="none" /><text fill="#e1ed5e" style="font-size:6.75px; font-family:Arial;" text-anchor="middle"><textPath startOffset="21.46611528233685" xlink:href="#id59">November</textPath></text><path d="M 82.15384107792192 88.93136811851018 l -20.316904500738822 -12.601049776142847 a44.907385134158254,44.907385134158254 0 0,0 0.41308893012731773,-0.6534074839402726 l 20.09698797436554 12.948904907797337" fill="#fffd17" stroke="none" /><path d="M 82.54541684631803 88.32363383020206 l -19.57630485383293 -13.095706824526946 a44.55269090707396,44.55269090707396 0 0,0 0.43189704082395397,-0.6337556141134908 l 19.347983347340236 13.430740461910853" fill="#fff817" stroke="none" /><path d="M 83.6137871275137 86.86637796730984 l -19.004983530954487 -15.232578288553917 a45.35612531435933,45.35612531435933 0 0,0 0.4935210965668196,-0.6049985097996022 l 18.739963942311274 15.557460967961601" fill="#fbff18" stroke="none" /><path d="M 84.07557802195018 86.31012108654704 l -18.706813987521414 -16.081840753696163 a45.669221544081395,45.669221544081395 0 0,0 0.5176022053122576,-0.5917087972602835 l 18.427219918631316 16.40146510715939" fill="#f7ff18" stroke="none" /><path d="M 84.5562425177563 85.77008943001954 l -46.331272446731106 -42.68973170994139 a84.0,84.0 0 0,0 0.9889307121181763,-1.0549223324877994 l 45.58957441264248 43.480923459307235" fill="#4dd2ff" stroke="none" /><path d="M 84.80347519578584 85.50635884689758 l -16.680720660187404 -15.909188616390372 a44.051002671794734,44.051002671794734 0 0,0 0.5280576948666736,-0.544209872141939 l 16.404398701617612 16.193962684082436" fill="#fff116" stroke="none" /><path d="M 85.05521093208273 85.24692304244772 l -15.803636850110927 -15.600907419925742 a43.20682890498502,43.20682890498502 0 0,0 0.5270496549406328,-0.5247863362264891 l 15.53275139500298 15.870629606802341" fill="#ffe615" stroke="none" /><path d="M 85.57189188830299 84.74124197986013 l -15.420498437887513 -16.30828188921818 a43.4444164604717,43.4444164604717 0 0,0 0.5477970938983756,-0.5091176976945324 l 15.137493460194282 16.57130417298736" fill="#ffe915" stroke="none" /><path d="M 85.83668400450813 84.49514656593479 l -15.101762636350866 -16.532188955410707 a43.391438238355455,43.391438238355455 0 0,0 0.5558009580250304,-0.49900358788045057 l 14.814950690729864 16.789691552060436" fill="#ffe815" stroke="none" /><path d="M 86.65592168130627 83.78471172551755 l -14.431506301214021 -17.53669525315728 a43.71131996437215,43.71131996437215 0 0,0 0.5851001660116529,-0.47311030992563374 l 14.127502736637869 17.782511660347048" fill="#ffed16" stroke="none" /><path d="M 86.93701828274178 83.55741782278169 l -14.274576372854353 -17.967635577836493 a43.94775498567098,43.94775498567098 0 0,0 0.5963656878450606,-0.4654728787588632 l 13.963178129849867 18.21068684581858" fill="#fff016" stroke="none" /><path d="M 87.51073957382395 83.11751280151077 l -12.961756499738138 -17.52118866207068 a42.794475990268225,42.794475990268225 0 0,0 0.5959735684542656,-0.4330001430491394 l 12.65823761493009 17.74170803993649" fill="#ffe015" stroke="none" /><path d="M 87.80319425747018 82.90503203632743 l -12.580153193975985 -17.632265395456404 a42.660033180023376,42.660033180023376 0 0,0 0.6014432099491792,-0.42134940427285594 l 12.274778844443146 17.846199642493204" fill="#ffde14" stroke="none" /><path d="M 88.39885842347998 82.49532879139004 l -12.70066687634206 -19.16371732333779 a43.99032406802064,43.99032406802064 0 0,0 0.6347866066212072,-0.41288286668464613 l 12.368913243936566 19.379499114181968" fill="#fff016" stroke="none" /><path d="M 88.70189139769569 82.29822771554957 l -11.825739005942031 -18.528458731210424 a42.98071623016017,42.98071623016017 0 0,0 0.6270699176306951,-0.39267112489283823 l 11.505049935939093 18.729274197426193" fill="#ffe315" stroke="none" /><path d="M 89.00827224532344 82.1063720568725 l -11.79739482743526 -19.205187614885133 a43.539249234110116,43.539249234110116 0 0,0 0.6419715795849836,-0.38678069363092654 l 11.465061181632628 19.405414917974678" fill="#ffea16" stroke="none" /><line stroke="#e1ed5e" stroke-width="0.3" x1="56.762969772571076" x2="54.21961505331055" y1="26.818313649435495" y2="22.513508569990535" /><path d="M 56.25429882871897 25.957352633546506 a86.0,86.0 0 0,1 42.265352541879196,-11.944610805530505" fill="none" id="id60" stroke="none" /><text fill="#e1ed5e" style="font-size:6.75px; font-family:Arial;" text-anchor="middle"><textPath startOffset="22.20632615414155" xlink:href="#id60">December</textPath></text><path d="M 89.63071344664047 81.73862282372117 l -12.30851123993361 -21.676550751514544 a45.927340440298835,45.927340440298835 0 0,0 0.6908257380036987,-0.3844437752579042 l 11.933561412857866 21.88520992433263" fill="#f4ff19" stroke="none" /><path d="M 89.94658935756843 81.56283822128135 l -11.489903274212912 -21.071575908218893 a45.00060808618397,45.00060808618397 0 0,0 0.6832698475008647,-0.3649790894016441 l 11.125488380183743 21.266233724122287" fill="#fffe18" stroke="none" /><path d="M 90.58718382345135 81.22770947309562 l -9.822024822301316 -19.588388859232282 a42.91294479777646,42.91294479777646 0 0,0 0.6631658859082822,-0.3254126201173718 l 9.483387669382607 19.75455663948448" fill="#ffe215" stroke="none" /><path d="M 90.91171255644093 81.06846463323043 l -8.610145860122419 -17.935533165764213 a40.89517433129982,40.89517433129982 0 0,0 0.637228194947727,-0.29918718182519827 l 8.300139453875083 18.08108533022942" fill="#ffc612" stroke="none" /><path d="M 91.23893434514133 80.91482961587045 l -9.222505916239601 -20.0903752710109 a43.10605785537351,43.10605785537351 0 0,0 0.6770070801479976,-0.30375334257969305 l 8.875316717624829 20.246148944107123" fill="#ffe415" stroke="none" /><path d="M 91.90106846888425 80.62456947434976 l -8.810986426058417 -21.078910805043343 a43.84631179265394,43.84631179265394 0 0,0 0.6988603721932614,-0.2850826931565499 l 8.446842184276775 21.22745438438347" fill="#ffee16" stroke="none" /><path d="M 93.25333710446033 80.11325718540243 l -7.324636537002411 -21.590401844157938 a43.79902963267097,43.79902963267097 0 0,0 0.7160456781909372,-0.23606900215149917 l 6.951908036569065 21.71328457056867" fill="#ffee16" stroke="none" /><path d="M 93.59665428221793 80.00007090966166 l -6.960223007072701 -21.739255184649238 a43.8262988741382,43.8262988741382 0 0,0 0.7204514014906586,-0.22384775742086666 l 6.584986232871314 21.85584307695263" fill="#ffee16" stroke="none" /><path d="M 94.28887869178378 79.79150937346287 l -6.4222643391335215 -22.72483137625023 a44.61489869384819,44.61489869384819 0 0,0 0.7408242546006976,-0.20249525358071624 l 6.030142195309102 22.83201317065724" fill="#fff917" stroke="none" /><path d="M 95.33964822691252 79.52364482259891 l -7.538933275050023 -33.12408223990822 a54.971169234541506,54.971169234541506 0 0,0 0.9244508750936408,-0.20204915518068042 l 6.967639675802861 33.24894489318476" fill="#82ff25" stroke="none" /><path d="M 95.692805502759 79.44645832069477 l -4.6679008142686405 -22.27479952493191 a43.758646530225754,43.758646530225754 0 0,0 0.7385492479317308,-0.14814603122451162 l 4.283785156869773 22.351849512233635" fill="#ffed16" stroke="none" /><path d="M 96.04723909329186 79.375362276772 l -4.43202238497021 -23.125318790751972 a44.54619271973249,44.54619271973249 0 0,0 0.7543258794013166,-0.13784823293091214 l 4.033301384466 23.19818250503362" fill="#fff817" stroke="none" /><path d="M 96.75951476605007 79.25152402106235 l -3.150170898660517 -20.170203071944098 a41.41471696238355,41.41471696238355 0 0,0 0.7052946405960078,-0.10394209622999495 l 2.8025072776358604 20.22143965233506" fill="#ffcd13" stroke="none" /><path d="M 97.11714578562143 79.19881850522333 l -2.979013983038163 -21.495020534714097 a42.70047078058256,42.70047078058256 0 0,0 0.7289280886009251,-0.09463578627662367 l 2.6085711659293804 21.543114644154855" fill="#ffdf14" stroke="none" /><path d="M 97.83486435360386 79.11191278185805 l -2.2678482369758552 -21.87900414013777 a42.99622598970378,42.99622598970378 0 0,0 0.7368219696973394,-0.06997012433811282 l 1.8909011401882798 21.914799808991063" fill="#ffe315" stroke="none" /><path d="M 98.19473922651362 79.07773832637324 l -1.8864246129454931 -21.86291862055654 a42.94415203258956,42.94415203258956 0 0,0 0.7370235096219397,-0.05720720922145292 l 1.5098109139612192 21.892151091966454" fill="#ffe215" stroke="none" /><path d="M 98.55514903715128 79.0497635885617 l -1.5756921241986706 -22.84742396441897 a43.90169398713047,43.90169398713047 0 0,0 0.7543522528945715,-0.04550458794124241 l 1.1821778224644761 22.871161821740518" fill="#ffef16" stroke="none" /><path d="M 99.63851952072746 79.00311137660856 l -0.41710673293040884 -24.22798496071307 a45.2315751300487,45.2315751300487 0 0,0 0.7785872122029386,-0.0067015459441860286 l 5.935024184262549e-15 24.231575130048697" fill="#fdff18" stroke="none" /></svg>