<?xml version="1.0" encoding="utf-8" ?>
<svg baseProfile="full" height="200mm" version="1.1" viewBox="0,0,200,200" width="200mm" xmlns="http://www.w3.org/2000/svg" xmlns:ev="http://www.w3.org/2001/xml-events" xmlns:xlink="http://www.w3.org/1999/xlink"><defs /><rect fill="#1a1a1a" height="200" width="200" x="0" y="0" /><text alignment-baseline="middle" fill="#e1ed5e" style="dominant-baseline: central; font-size:9.0px; font-family:Arial;" text-anchor="middle" x="100.0" y="100.0">2020</text><line stroke="#e1ed5e" stroke-width="0.3" x1="100.0" x2="100.0" y1="15.0" y2="10.0" /><path d="M 100.0 14.0 a86.0,86.0 0 0,1 42.35913384403234,11.155469271406648" fill="none" id="id37" stroke="none" /><text fill="#e1ed5e" style="font-size:6.75px; font-family:Arial;" text-anchor="middle"><textPath startOffset="22.145653131862478" xlink:href="#id37">January</textPath></text><line stroke="#e1ed5e" stroke-width="0.3" x1="143.13028292997686" x2="145.6673583964461" y1="26.7553504044142" y2="22.446841604673864" /><path d="M 143.63769802327073 25.89364864446614 a86.0,86.0 0 0,1 29.32050498858742,28.57503671076993" fill="none" id="id38" stroke="none" /><text fill="#e1ed5e" style="font-size:6.75px; font-family:Arial;" text-anchor="middle"><textPath startOffset="20.669276256404974" xlink:href="#id38">February</textPath></text><line stroke="#e1ed5e" stroke-width="0.3" x1="172.87174338648825" x2="177.1583165268699" y1="56.24261187166439" y2="53.66864786411523" /><path d="M 173.72905801456457 55.72781907015455 a86.0,86.0 0 0,1 12.242430191666344,42.057860355516425" fill="none" id="id39" stroke="none" /><text fill="#e1ed5e" style="font-size:6.75px; font-family:Arial;" text-anchor="middle"><textPath startOffset="22.145653131862474" xlink:href="#id39">March</textPath></text><path d="M 120.93736805541906 98.37931529534042 l 28.185503342000466 -2.1817362162522898 a49.269817324475696,49.269817324475696 0 0,0 0.058035243558491934,0.8438197043553521 l -28.218802546724024 1.6975730877426036" fill="#fbff18" stroke="none" /><line stroke="#e1ed5e" stroke-width="0.3" x1="184.99686870605535" x2="189.99668451229388" y1="99.2704041080226" y2="99.22748670261217" /><path d="M 185.99683186730306 99.26182062694052 a86.0,86.0 0 0,1 -10.086455211305974,41.156179273409016" fill="none" id="id40" stroke="none" /><text fill="#e1ed5e" style="font-size:6.75px; font-family:Arial;" text-anchor="middle"><textPath startOffset="21.40746469413373" xlink:href="#id40">April</textPath></text><path d="M 120.99922638620191 99.81974689727618 l 23.413871934011997 -0.20097993065388167 a44.414734503616316,44.414734503616316 0 0,0 0.0,0.7624660667554143 l -23.413871934011997 -0.2009799306538788" fill="#ffb911" stroke="none" /><path d="M 120.99303781780057 100.54070618675476 l 20.70829062739889 0.5333721091978287 a41.71515837534646,41.71515837534646 0 0,0 -0.024582768660526753,0.7157004873977761 l -20.696083171741513 -0.8887788611597156" fill="#ff8d0d" stroke="none" /><path d="M 120.51834098615036 104.47187691870673 l 22.211002462501536 4.840784609264557 a43.732395958687285,43.732395958687285 0 0,0 -0.16616048550298818,0.7321337577932637 l -22.124631115440884 -5.221352700996838" fill="#ffae10" stroke="none" /><path d="M 120.35273937422433 105.17358676015961 l 19.835732667657123 5.0421656770892245 a41.46655137481585,41.46655137481585 0 0,0 -0.18128883861710327,0.688383248842264 l -19.74625434823529 -5.381929430304292" fill="#ff890c" stroke="none" /><path d="M 120.16314734710363 105.8691983318838 l 39.31722360116319 11.444670774942146 a61.94904835097733,61.94904835097733 0 0,0 -0.3059801555826879,1.0185084232825035 l -39.114967125576875 -12.117916801815374" fill="#4fff2b" stroke="none" /><path d="M 119.83427380445688 106.89939002012753 l 22.425940557407788 7.80090624941281 a44.743987622059514,44.743987622059514 0 0,0 -0.2585772728270977,0.723286652848283 l -22.288723114536747 -8.184727858642013" fill="#ffbe11" stroke="none" /><path d="M 119.58574465831526 107.57618678355244 l 18.87467572821825 7.301130045890516 a41.23758591809795,41.23758591809795 0 0,0 -0.26105615776905855,0.6580320520820416 l -18.746560895483068 -7.624063115186122" fill="#ff850c" stroke="none" /><path d="M 119.31412917781788 108.2440532568976 l 36.44861745507283 15.557747422804438 a60.63010496148121,60.63010496148121 0 0,0 -0.41680632791395006,0.9537344467737615 l -36.17617724514191 -16.181143939354044" fill="#5fff29" stroke="none" /><path d="M 119.0197475246899 108.90220220490707 l 21.194186293998758 9.91994934279356 a44.4008317721468,44.4008317721468 0 0,0 -0.32903287559898103,0.6875521614386988 l -21.020774160439867 -10.282314006297362" fill="#ffb811" stroke="none" /><line stroke="#e1ed5e" stroke-width="0.3" x1="174.33088141563837" x2="178.70328620479359" y1="141.23008692659167" y2="143.65538615756765" /><path d="M 175.20536237346943 141.71514677278685 a86.0,86.0 0 0,1 -30.301960400862466,31.631185727798858" fill="none" id="id41" stroke="none" /><text fill="#e1ed5e" style="font-size:6.75px; font-family:Arial;" text-anchor="middle"><textPath startOffset="22.145653131862474" xlink:href="#id41">May</textPath></text><path d="M 116.57777611688842 112.89097897827486 l 31.209211244828072 24.26847143120493 a60.53446056456965,60.53446056456965 0 0,0 -0.6449329014904188,0.8148516527374745 l -30.788011912696092 -24.800643027857088" fill="#60ff29" stroke="none" /><path d="M 115.16444852881244 114.52719865689866 l 16.701518627368902 15.999677041383448 a44.128562209720755,44.128562209720755 0 0,0 -0.528729938009683,0.5425234949631945 l -16.42440188820841 -16.28402322841438" fill="#ffb410" stroke="none" /><path d="M 113.31354834802062 116.24036423190432 l 25.218452114205487 30.76241111637419 a60.778087746010335,60.778087746010335 0 0,0 -0.8125429197130127,0.6545270592254508 l -24.68665842413722 -31.190786469393043" fill="#5dff2a" stroke="none" /><path d="M 112.7482090630111 116.68781488649013 l 14.389410447551908 18.83620018212625 a44.703534975383924,44.703534975383924 0 0,0 -0.6138157473940463,0.46061878012908125 l -14.063941711247095 -19.080437989519346" fill="#ffbd11" stroke="none" /><path d="M 111.8722381534696 117.32195027204791 l 11.854772663458812 17.296467600159687 a41.96910647466086,41.96910647466086 0 0,0 -0.5977674062772931,0.4022045884550898 l -11.556108969084516 -17.497421862671896" fill="#ff910d" stroke="none" /><line stroke="#e1ed5e" stroke-width="0.3" x1="143.1302829299769" x2="145.66735839644613" y1="173.24464959558577" y2="177.55315839532614" /><path d="M 143.63769802327073 174.10635135553383 a86.0,86.0 0 0,1 -40.68552437913181,11.842963189579606" fill="none" id="id42" stroke="none" /><text fill="#e1ed5e" style="font-size:6.75px; font-family:Arial;" text-anchor="middle"><textPath startOffset="21.407464694133747" xlink:href="#id42">June</textPath></text><path d="M 110.34350942703117 118.27599006163325 l 11.525285878667924 20.36407581604291 a44.3993119220751,44.3993119220751 0 0,0 -0.6665305297764086,0.36971324917084464 l -11.174011160735422 -20.558921980646897" fill="#ffb811" stroke="none" /><path d="M 108.73861861582097 119.09545874513695 l 16.43346260992291 35.91008157049002 a60.491678259488815,60.491678259488815 0 0,0 -0.9479524073317821,0.4240070543316624 l -15.8145967997355 -36.18689237573153" fill="#61ff29" stroke="none" /><path d="M 107.74402155503746 119.51999308798841 l 8.727042495475514 21.997848014698477 a44.665726018772574,44.665726018772574 0 0,0 -0.7151360001607524,0.27662996773319964 l -8.348134232821232 -22.144417870569715" fill="#ffbd11" stroke="none" /><path d="M 107.06938296918513 119.77432235084164 l 7.1745368910837755 20.068456585348798 a42.31236564343695,42.31236564343695 0 0,0 -0.6860531558433718,0.23864490040664732 l -6.828977963195381 -20.188659918324035" fill="#ff970d" stroke="none" /><path d="M 106.38641147887787 120.00534299687104 l 12.068566802775328 37.80461361888211 a60.684242660607964,60.684242660607964 0 0,0 -0.9951041617748445,0.30828581301920266 l -11.41782200812886 -38.00621601970795" fill="#5eff29" stroke="none" /><path d="M 106.0420521117495 120.11202640906438 l 6.730665309166118 22.404195783959615 a44.39337180121767,44.39337180121767 0 0,0 -0.7317295793148672,0.2129958161974025 l -6.345075717469644 -22.516435294459534" fill="#ffb811" stroke="none" /><path d="M 104.9986988182912 120.39639698878246 l 4.9154881047610415 20.056868881853788 a41.650424030801936,41.650424030801936 0 0,0 -0.6958949797861075,0.16422932040573027 l -4.570460971235055 -20.13829434590574" fill="#ff8c0c" stroke="none" /><line stroke="#e1ed5e" stroke-width="0.3" x1="101.45913802915013" x2="101.54496967792366" y1="184.9874750549273" y2="189.98673829345242" /><path d="M 101.47630435890484 185.9873277026323 a86.0,86.0 0 0,1 -42.54439059252881,-10.42667462771756" fill="none" id="id43" stroke="none" /><text fill="#e1ed5e" style="font-size:6.75px; font-family:Arial;" text-anchor="middle"><textPath startOffset="22.145653131862474" xlink:href="#id43">July</textPath></text><path d="M 98.55909050195518 120.95050786540614 l -1.6117284282947855 23.434177621638685 a44.489537018193545,44.489537018193545 0 0,0 -0.7614723339254119,-0.05894277453344604 l 2.0137697569954334 -23.403057080110184" fill="#ffba11" stroke="none" /><path d="M 97.48249496171623 120.84855314841334 l -2.4878599736836216 20.603049486849397 a41.7527129649649,41.7527129649649 0 0,0 -0.7108343276763207,-0.09203173511672445 l 2.841172123250736 -20.557306155532274" fill="#ff8e0d" stroke="none" /><path d="M 96.41257539226777 120.69131181640829 l -6.7242974795032415 38.78396094925688 a60.36256855829325,60.36256855829325 0 0,0 -1.0194526886318882,-0.18577823962455273 l 7.389084901686187 -38.66281453570096" fill="#62ff29" stroke="none" /><path d="M 95.70440661134978 120.55596938700252 l -4.793933516530202 22.940707300065295 a44.43625076645539,44.43625076645539 0 0,0 -0.7453389325943949,-0.16244315130215248 l 5.187034865743732 -22.855032690629425" fill="#ffb911" stroke="none" /><path d="M 94.30408787586889 120.21278271476187 l -9.240894650086691 32.79267509428102 a55.06983524722536,55.06983524722536 0 0,0 -0.907708194791502,-0.26422062642283434 l 9.8024628572598 -32.62921077355568" fill="#a8ff21" stroke="none" /><path d="M 93.61358852112213 120.00534299687104 l -7.208498326361023 22.58051833775065 a44.70321194527533,44.70321194527533 0 0,0 -0.7290396973985992,-0.23964982910329713 l 7.595060761407366 -22.453447587245332" fill="#ffbd11" stroke="none" /><path d="M 91.26138138417905 119.09545874513695 l -9.764960178360015 21.338200284446355 a44.46642790592772,44.46642790592772 0 0,0 -0.6913709792907207,-0.3235965276753035 l 10.129819871522226 -21.167427525200527" fill="#ffb911" stroke="none" /><path d="M 90.28995756902619 118.62028667847754 l -9.731957505862535 18.662311724187603 a42.04739593837357,42.04739593837357 0 0,0 -0.6371405549829124,-0.33924145844392434 l 10.05088687663201 -18.492499798021107" fill="#ff930d" stroke="none" /><line stroke="#e1ed5e" stroke-width="0.3" x1="58.13341422392154" x2="55.67067388415222" y1="173.97424548756322" y2="178.32567169271397" /><path d="M 57.64086615596768 174.84453072859336 a86.0,86.0 0 0,1 -31.369924170532247,-30.572349798747897" fill="none" id="id44" stroke="none" /><text fill="#e1ed5e" style="font-size:6.75px; font-family:Arial;" text-anchor="middle"><textPath startOffset="22.145653131862474" xlink:href="#id44">August</textPath></text><path d="M 83.8745106332314 113.45245675266167 l -45.52883989306761 37.981777528100174 a80.29157348395032,80.29157348395032 0 0,0 -0.8738521194329585,-1.065957499341093 l 46.1741388317392 -37.19461774706058" fill="#47fcff" stroke="none" /><path d="M 83.20337586046588 112.60449989151573 l -28.934861744229337 21.713259681613447 a57.1758465023121,57.1758465023121 0 0,0 -0.5823713378775939,-0.7900985674848555 l 29.303335101690763 -21.213354804859712" fill="#8cff24" stroke="none" /><path d="M 82.37810715431573 111.42229804090323 l -49.78130149701522 32.2676381897435 a80.32434957992311,80.32434957992311 0 0,0 -0.7400638369225001,-1.1635032729782178 l 50.327883025563615 -31.408321242086615" fill="#47fcff" stroke="none" /><line stroke="#e1ed5e" stroke-width="0.3" x1="26.387840678322732" x2="22.057713659400534" y1="142.50000000000003" y2="145.00000000000006" /><path d="M 25.521815274538284 143.00000000000003 a86.0,86.0 0 0,1 -11.493303480769212,-40.785679425670985" fill="none" id="id45" stroke="none" /><text fill="#e1ed5e" style="font-size:6.75px; font-family:Arial;" text-anchor="middle"><textPath startOffset="21.40746469413373" xlink:href="#id45">September</textPath></text><path d="M 81.63589988554817 110.18625677009913 l -19.71077278078342 10.933233397270339 a43.539967971025604,43.539967971025604 0 0,0 -0.3569337125624599,-0.6567178288330311 l 19.895551842961208 -10.59326073496272" fill="#ffab0f" stroke="none" /><path d="M 80.9802524753101 108.90220220490708 l -53.77682221023508 25.17026814532629 a80.37582846191589,80.37582846191589 0 0,0 -0.5741725199729775,-1.2546705777827727 l 54.20097919506312 -24.243408585328826" fill="#47fbff" stroke="none" /><path d="M 80.5471966667186 107.91128576633889 l -36.966282198074744 15.033865154424698 a60.90642957004702,60.90642957004702 0 0,0 -0.3855705452440224,-0.9718896473369706 l 37.21891141828489 -14.397074489874162" fill="#5cff2a" stroke="none" /><path d="M 80.41425534168474 107.57618678355246 l -22.24288548605832 8.60402593760974 a44.84900872323554,44.84900872323554 0 0,0 -0.271591322425441,-0.7204282497236592 l 22.387307492298195 -8.220929407691935" fill="#ffbf11" stroke="none" /><path d="M 80.05021161711548 106.5578916946017 l -59.849365148653554 19.673675083805072 a84.0,84.0 0 0,0 -0.4385411368909806,-1.3737238652344332 l 60.17827100132179 -18.643382184879247" fill="#4dd2ff" stroke="none" /><path d="M 79.73907114497094 105.5222062557868 l -23.549132420023383 6.4184207594177645 a45.40814951569908,45.40814951569908 0 0,0 -0.19852122774917438,-0.7538174372155895 l 23.655843128577292 -6.013222817829373" fill="#ffc812" stroke="none" /><path d="M 79.48165901384964 104.47187691870673 l -38.70730245974525 8.436076414363695 a60.61593932975948,60.61593932975948 0 0,0 -0.21285514889084575,-1.0185889418739935 l 38.84641531946046 -7.770371021204292" fill="#5fff29" stroke="none" /><path d="M 79.22317932658666 103.0534771498775 l -39.11878593280565 5.749114402745029 a60.53898998801719,60.53898998801719 0 0,0 -0.1422824341960827,-1.0294848159275665 l 39.21171288355695 -5.076741278617377" fill="#60ff29" stroke="none" /><path d="M 79.06263194458094 101.62068470465958 l -39.856088975765296 3.085113354247766 a60.975314293357066,60.975314293357066 0 0,0 -0.07182322582537054,-1.0442939404695966 l 39.903176162755734 -2.400475989623826" fill="#5bff2a" stroke="none" /><path d="M 79.01933749520258 100.90099992219065 l -24.038493595673533 1.032316346270277 a45.06064943820125,45.06064943820125 0 0,0 -0.026554268615382848,-0.7730985574883915 l 24.052672551285763 -0.6195115242177655" fill="#ffc312" stroke="none" /><line stroke="#e1ed5e" stroke-width="0.3" x1="15.003131293944662" x2="10.003315487706104" y1="100.72959589197737" y2="100.7725132973878" /><path d="M 14.003168132696942 100.73817937305945 a86.0,86.0 0 0,1 10.791469493833604,-42.45332614584628" fill="none" id="id46" stroke="none" /><text fill="#e1ed5e" style="font-size:6.75px; font-family:Arial;" text-anchor="middle"><textPath startOffset="22.145653131862435" xlink:href="#id46">October</textPath></text><path d="M 79.03789590574601 98.7389718711861 l -32.25407834510912 -1.9403252592996785 a53.312388212639334,53.312388212639334 0 0,0 0.06279701453385923,-0.9130548092720566 l 32.216017369410196 2.49372349272606" fill="#c1ff1e" stroke="none" /><path d="M 79.17382384314186 97.30363454192245 l -39.95279564132952 -5.172689278604679 a61.286258127689536,61.286258127689536 0 0,0 0.14403870944830655,-1.0421923487650764 l 39.85811241532601 5.857769935569823" fill="#57ff2a" stroke="none" /><path d="M 80.68587082218212 91.75594674310238 l -19.635242310815766 -8.381117358807222 a42.3491421089127,42.3491421089127 0 0,0 0.29113244029405166,-0.6661679976679001 l 19.48847598850474 8.71694742625099" fill="#ff980e" stroke="none" /><path d="M 81.1358732173502 90.77261029715801 l -18.388196833479533 -8.994588515548914 a41.47018332479783,41.47018332479783 0 0,0 0.3182937022578907,-0.6368006210140821 l 18.231083218009896 9.308920992726765" fill="#ff890c" stroke="none" /><line stroke="#e1ed5e" stroke-width="0.3" x1="26.387840678322718" x2="22.05771365940052" y1="57.49999999999999" y2="54.99999999999999" /><path d="M 25.521815274538284 56.99999999999999 a86.0,86.0 0 0,1 29.574782752854787,-30.34633250058573" fill="none" id="id47" stroke="none" /><text fill="#e1ed5e" style="font-size:6.75px; font-family:Arial;" text-anchor="middle"><textPath startOffset="21.40746469413373" xlink:href="#id47">November</textPath></text><path d="M 84.58840730492382 85.73525988315684 l -15.301604717282675 -14.16293688662266 a41.85012921251147,41.85012921251147 0 0,0 0.49252453772645,-0.5230439911547298 l 15.056224345819953 14.4235223377219" fill="#ff900d" stroke="none" /><path d="M 84.83555147118756 85.47280134310135 l -14.94733120739547 -14.31920517437369 a41.69933204355611,41.69933204355611 0 0,0 0.4996239202549523,-0.5126581566466261 l 14.699320485989714 14.573686023088047" fill="#ff8d0d" stroke="none" /><path d="M 88.12776184653039 82.6780497279521 l -7.45889560502799 -10.882751599531607 a34.193536524518876,34.193536524518876 0 0,0 0.48701969988451266,-0.3276885890809312 l 7.270979617046488 11.009189862669647" fill="#ff0d01" stroke="none" /><path d="M 88.4268655584334 82.4767994020092 l -7.326583429141383 -11.09338112116331 a34.29443227232933,34.29443227232933 0 0,0 0.4940265950460929,-0.32022207024888727 l 7.135071201838264 11.217517033116103" fill="#ff0f01" stroke="none" /><path d="M 88.72937992617638 82.28071324371311 l -10.64843608008676 -16.741110176118035 a40.84071472706103,40.84071472706103 0 0,0 0.5947883604477189,-0.37119192727631656 l 10.359483590849344 16.921437900235887" fill="#ff7f0b" stroke="none" /><path d="M 89.03521579738668 82.08984904055464 l -10.770959827792854 -17.59355340964339 a41.62878322126397,41.62878322126397 0 0,0 0.6126711084792471,-0.3678913971710313 l 10.467355962756173 17.775858807350346" fill="#ff8c0c" stroke="none" /><line stroke="#e1ed5e" stroke-width="0.3" x1="56.869717070023135" x2="54.33264160355391" y1="26.7553504044142" y2="22.446841604673864" /><path d="M 56.362301976729285 25.89364864446614 a86.0,86.0 0 0,1 42.16139366436587,-11.88097634709845" fill="none" id="id48" stroke="none" /><text fill="#e1ed5e" style="font-size:6.75px; font-family:Arial;" text-anchor="middle"><textPath startOffset="22.145653131862474" xlink:href="#id48">December</textPath></text><path d="M 89.34428304082924 81.90426304109057 l -6.325161952603424 -10.741507808004021 a33.46545882493193,33.46545882493193 0 0,0 0.4975318243643526,-0.28725013272716304 l 6.139837660378672 10.848504838007358" fill="#ff0000" stroke="none" /><path d="M 89.97174638481275 81.54914285379989 l -6.418403049336639 -11.809138690977768 a34.44067164714926,34.44067164714926 0 0,0 0.5218765195212166,-0.2778698518331836 l 6.21473771402886 11.917579010533528" fill="#ff1101" stroke="none" /><path d="M 90.28995756902619 81.37971332152246 l -6.759047489894761 -12.961364775690525 a35.617855513691595,35.617855513691595 0 0,0 0.5445678012564362,-0.27806019952074507 l 6.5355524669247425 13.075482926884103" fill="#ff2603" stroke="none" /><path d="M 90.61103034731259 81.2157712731953 l -8.908430747824074 -17.822829016827228 a40.92519441691438,40.92519441691438 0 0,0 0.6311049885178842,-0.3087050749583731 l 8.601165510044137 17.973127841882814" fill="#ff800b" stroke="none" /></svg>